<svg xmlns="http://www.w3.org/2000/svg" width="64" height="64" viewBox="0 0 64 64" role="img" aria-label="Partly cloudy weather icon">
  <!-- Sun -->
  <circle cx="26" cy="24" r="10" fill="#f5b301"/>
  <g stroke="#f5b301" stroke-width="3" stroke-linecap="round">
    <line x1="26" y1="6" x2="26" y2="10"/>
    <line x1="26" y1="38" x2="26" y2="42"/>
    <line x1="8" y1="24" x2="12" y2="24"/>
    <line x1="40" y1="24" x2="44" y2="24"/>
    <line x1="13" y1="11" x2="16" y2="14"/>
    <line x1="36" y1="34" x2="39" y2="37"/>
    <line x1="39" y1="11" x2="36" y2="14"/>
    <line x1="16" y1="34" x2="13" y2="37"/>
  </g>
  <!-- Cloud -->
  <path d="M22 46a10 10 0 0 1 0.5-19.9 13 13 0 0 1 24.5 3.5A8 8 0 0 1 45 46z" fill="#ffffff" stroke="#c9d4dd" stroke-width="2"/>
</svg>
